HIERARCHY
ROOT Hips
{
	OFFSET 0.000000 0.000000 0.000000
	CHANNELS 6 Xposition Yposition Zposition Zrotation Yrotation Xrotation 
	JOINT LHipJoint
	{
		OFFSET 0.000000 0.000000 0.000000
		CHANNELS 3 Zrotation Yrotation Xrotation
		JOINT LeftUpLeg
		{
			OFFSET 1.363060 -1.794630 0.839290
			CHANNELS 3 Zrotation Yrotation Xrotation
			JOINT LeftLeg
			{
				OFFSET 2.448110 -6.726130 0.000000
				CHANNELS 3 Zrotation Yrotation Xrotation
				JOINT LeftFoot
				{
					OFFSET 2.562200 -7.039590 0.000000
					CHANNELS 3 Zrotation Yrotation Xrotation
					JOINT LeftToeBase
					{
						OFFSET 0.157640 -0.433110 2.322550
						CHANNELS 3 Zrotation Yrotation Xrotation
						End Site
						{
							OFFSET 0.000000 0.000000 0.000000
						}
					}
				}
			}
		}
	}
	JOINT RHipJoint
	{
		OFFSET 0.000000 0.000000 0.000000
		CHANNELS 3 Zrotation Yrotation Xrotation
		JOINT RightUpLeg
		{
			OFFSET -1.305520 -1.794630 0.839290
			CHANNELS 3 Zrotation Yrotation Xrotation
			JOINT RightLeg
			{
				OFFSET -2.542530 -6.985550 0.000000
				CHANNELS 3 Zrotation Yrotation Xrotation
				JOINT RightFoot
				{
					OFFSET -2.568260 -7.056230 0.000000
					CHANNELS 3 Zrotation Yrotation Xrotation
					JOINT RightToeBase
					{
						OFFSET -0.164730 -0.452590 2.363150
						CHANNELS 3 Zrotation Yrotation Xrotation
						End Site
						{
							OFFSET 0.000000 0.000000 0.000000
						}
					}
				}
			}
		}
	}
	JOINT LowerBack
	{
		OFFSET 0.000000 0.000000 0.000000
		CHANNELS 3 Zrotation Yrotation Xrotation
		JOINT Spine
		{
			OFFSET 0.028270 2.035590 -0.193380
			CHANNELS 3 Zrotation Yrotation Xrotation
			JOINT Spine1
			{
				OFFSET 0.056720 2.048850 -0.042750
				CHANNELS 3 Zrotation Yrotation Xrotation
				JOINT Neck
				{
					OFFSET 0.000000 0.000000 0.000000
					CHANNELS 3 Zrotation Yrotation Xrotation
					JOINT Neck1
					{
						OFFSET -0.054170 1.746240 0.172020
						CHANNELS 3 Zrotation Yrotation Xrotation
						JOINT Head
						{
							OFFSET 0.104070 1.761360 -0.123970
							CHANNELS 3 Zrotation Yrotation Xrotation
							End Site
							{
								OFFSET 0.000000 0.000000 0.000000
							}
						}
					}
				}
				JOINT LeftShoulder
				{
					OFFSET 0.000000 0.000000 0.000000
					CHANNELS 3 Zrotation Yrotation Xrotation
					JOINT LeftArm
					{
						OFFSET 3.362410 1.200890 -0.311210
						CHANNELS 3 Zrotation Yrotation Xrotation
						JOINT LeftForeArm
						{
							OFFSET 4.983000 -0.000000 -0.000000
							CHANNELS 3 Zrotation Yrotation Xrotation
							JOINT LeftHand
							{
								OFFSET 3.483560 -0.000000 -0.000000
								CHANNELS 3 Zrotation Yrotation Xrotation
								JOINT LeftFingerBase
								{
									OFFSET 0.000000 0.000000 0.000000
									CHANNELS 3 Zrotation Yrotation Xrotation
									JOINT LeftHandIndex1
									{
										OFFSET 0.715260 -0.000000 -0.000000
										CHANNELS 3 Zrotation Yrotation Xrotation
										End Site
										{
											OFFSET 0.000000 0.000000 0.000000
										}
									}
								}
								JOINT LThumb
								{
									OFFSET 0.000000 0.000000 0.000000
									CHANNELS 3 Zrotation Yrotation Xrotation
									End Site
									{
										OFFSET 0.000000 0.000000 0.000000
									}
								}
							}
						}
					}
				}
				JOINT RightShoulder
				{
					OFFSET 0.000000 0.000000 0.000000
					CHANNELS 3 Zrotation Yrotation Xrotation
					JOINT RightArm
					{
						OFFSET -3.136600 1.374050 -0.404650
						CHANNELS 3 Zrotation Yrotation Xrotation
						JOINT RightForeArm
						{
							OFFSET -5.241900 -0.000000 -0.000000
							CHANNELS 3 Zrotation Yrotation Xrotation
							JOINT RightHand
							{
								OFFSET -3.444170 -0.000000 -0.000000
								CHANNELS 3 Zrotation Yrotation Xrotation
								JOINT RightFingerBase
								{
									OFFSET 0.000000 0.000000 0.000000
									CHANNELS 3 Zrotation Yrotation Xrotation
									JOINT RightHandIndex1
									{
										OFFSET -0.622530 -0.000000 -0.000000
										CHANNELS 3 Zrotation Yrotation Xrotation
										End Site
										{
											OFFSET 0.000000 0.000000 0.000000
										}
									}
								}
								JOINT RThumb
								{
									OFFSET 0.000000 0.000000 0.000000
									CHANNELS 3 Zrotation Yrotation Xrotation
									End Site
									{
										OFFSET 0.000000 0.000000 0.000000
									}
								}
							}
						}
					}
				}
			}
		}
	}
}
MOTION
Frames: 8
Frame Time: 0.033333
-1.925762 17.211688 23.545251 1.474414 2.262576 9.767481 -4.620979 8.795914 -3.976934 -18.480221 -2.405766 -6.518022 -10.902752 -9.491702 -25.996787 0.257983 11.502779 22.513016 0.000000 0.000000 0.000000 12.624538 -3.078613 -2.823168 4.534339 -0.144115 -6.231935 -12.442793 -25.875274 49.406503 14.729101 -40.347050 22.226743 0.000000 0.000000 0.000000 -6.558325 -2.113210 14.697378 1.432566 -0.153344 -3.720514 3.230815 -2.795667 1.302787 0.149656 -1.116821 -7.077208 3.827298 -0.330508 5.912125 0.000000 0.000000 0.000000 23.055084 3.329593 2.628525 -63.191171 -17.922837 -22.431821 43.927733 -86.500295 -2.169598 14.437450 -6.229543 -1.115814 14.660174 -6.071908 0.000000 0.000000 0.000000 0.000000 0.000000 0.000000 0.000000 -20.906678 -3.152409 3.561584 83.802707 17.172491 11.019308 167.888035 75.330233 -179.703094 -7.103018 14.470179 0.136810 -7.207498 14.423561 0.000000 0.000000 0.000000 0.000000 0.000000 0.000000 0.000000 
-1.925947 17.246932 23.755894 1.788372 1.734286 9.941989 -4.208444 9.251654 -4.219988 -19.457921 -2.420385 -6.437023 -10.634347 -8.792806 -24.100989 0.020303 10.006316 19.243355 0.000000 0.000000 0.000000 12.677942 -3.458757 -2.225303 4.175427 0.083913 -6.598880 -12.917989 -25.476611 49.069186 14.359857 -41.229352 24.285892 0.000000 0.000000 0.000000 -6.847121 -2.291448 14.500579 1.275953 -0.254645 -3.587661 3.241509 -3.122579 1.213126 0.054521 -1.200164 -6.849291 3.848918 -0.357150 6.044116 0.000000 0.000000 0.000000 23.715879 3.088705 1.525237 -61.412645 -17.766757 -22.819360 48.888924 -83.358315 -2.186334 13.928386 -5.045637 -1.121744 14.127628 -4.901974 0.000000 0.000000 0.000000 0.000000 0.000000 0.000000 0.000000 -21.506246 -2.447845 3.574602 84.308843 18.419364 10.215511 166.502096 74.429065 -179.719809 -7.391310 14.236043 0.128294 -7.496403 14.186598 0.000000 0.000000 0.000000 0.000000 0.000000 0.000000 0.000000 
-1.924330 17.284865 23.964845 2.085457 1.231853 10.087022 -3.843505 9.765757 -4.440146 -20.392004 -2.483919 -6.447060 -10.361058 -8.027870 -22.021901 -0.165462 8.509529 16.018709 0.000000 0.000000 0.000000 12.723158 -3.882865 -1.638286 3.871517 0.331931 -6.972805 -13.461261 -25.054681 48.743934 13.933005 -42.135655 26.362741 0.000000 0.000000 0.000000 -7.093209 -2.459806 14.259545 1.127572 -0.370909 -3.474996 3.259787 -3.424451 1.190573 0.046850 -1.289365 -6.705107 3.824557 -0.377248 6.107445 0.000000 0.000000 0.000000 24.168225 2.794328 0.636701 -59.675914 -17.548158 -22.370417 53.153171 -79.887069 -2.159820 13.236266 -4.011170 -1.105845 13.413655 -3.881080 0.000000 0.000000 0.000000 0.000000 0.000000 0.000000 0.000000 -21.972029 -1.783489 3.615528 84.683663 19.541798 9.526232 165.340988 73.730802 -179.734175 -7.628715 14.026363 0.120993 -7.734042 13.974644 0.000000 0.000000 0.000000 0.000000 0.000000 0.000000 0.000000 
-1.919709 17.324969 24.171390 2.368746 0.762427 10.212281 -3.541879 10.330271 -4.636007 -21.266981 -2.602381 -6.559570 -10.088269 -7.199578 -19.768688 -0.305318 7.033835 12.877144 0.000000 0.000000 0.000000 12.771952 -4.338182 -1.040098 3.561255 0.573863 -7.353428 -13.983877 -24.643006 48.380929 13.434902 -42.970264 28.381599 0.000000 0.000000 0.000000 -7.293496 -2.609087 13.964763 0.979062 -0.497896 -3.373085 3.297175 -3.692161 1.235112 0.130576 -1.384636 -6.651330 3.751172 -0.390870 6.104840 0.000000 0.000000 0.000000 24.425386 2.445747 -0.019025 -58.030824 -17.311171 -21.427887 56.486876 -76.372964 -2.106381 12.439758 -3.133513 -1.076633 12.598176 -3.015126 0.000000 0.000000 0.000000 0.000000 0.000000 0.000000 0.000000 -22.309657 -1.173098 3.675603 84.923710 20.504389 8.953434 164.396325 73.215662 -179.745880 -7.823804 13.852648 0.115034 -7.929293 13.799053 0.000000 0.000000 0.000000 0.000000 0.000000 0.000000 0.000000 
-1.912083 17.366727 24.374862 2.635275 0.328315 10.318033 -3.312361 10.941912 -4.798478 -22.067630 -2.782863 -6.782450 -9.807816 -6.314120 -17.355265 -0.403198 5.596047 9.853799 0.000000 0.000000 0.000000 12.822260 -4.823055 -0.434311 3.250124 0.815098 -7.738490 -14.481125 -24.244868 47.989751 12.874190 -43.727335 30.332119 0.000000 0.000000 0.000000 -7.438715 -2.732994 13.612231 0.824196 -0.632477 -3.274858 3.364363 -3.917382 1.333440 0.309741 -1.486742 -6.682016 3.620899 -0.397933 6.034021 0.000000 0.000000 0.000000 24.502206 2.057239 -0.465126 -56.543422 -17.075795 -20.327851 58.849534 -73.122445 -2.042585 11.641724 -2.421504 -1.042618 11.784712 -2.312242 0.000000 0.000000 0.000000 0.000000 0.000000 0.000000 0.000000 -22.525861 -0.613347 3.757956 85.024186 21.267998 8.499309 163.668248 72.874405 -179.754697 -7.983416 13.724804 0.110507 -8.089250 13.669596 0.000000 0.000000 0.000000 0.000000 0.000000 0.000000 0.000000 
-1.904402 17.407296 24.571228 2.897216 -0.039996 10.441679 -3.181695 11.482938 -4.968718 -22.750730 -2.972325 -7.034488 -9.489791 -5.442234 -15.000822 -0.461122 4.284859 7.097784 0.000000 0.000000 0.000000 12.928255 -5.234283 0.221118 2.731816 0.910170 -8.095768 -14.640121 -23.980904 47.393595 12.269020 -44.185776 31.989184 0.000000 0.000000 0.000000 -7.552484 -2.767404 13.224726 0.689440 -0.736365 -3.187035 3.517324 -4.019065 1.387044 0.436685 -1.540876 -6.713543 3.463747 -0.397155 5.930493 0.000000 0.000000 0.000000 24.327715 1.806184 -0.614210 -55.882744 -16.936425 -19.779868 59.805481 -71.593002 -2.009833 11.249848 -2.107781 -1.025305 11.386119 -2.002313 0.000000 0.000000 0.000000 0.000000 0.000000 0.000000 0.000000 -22.330997 -0.323149 3.824042 84.713376 21.246786 8.596756 163.681432 73.005265 -179.749457 -8.019359 13.775294 0.112988 -8.126100 13.719446 0.000000 0.000000 0.000000 0.000000 0.000000 0.000000 0.000000 
-1.896220 17.446118 24.760242 3.152464 -0.358076 10.583344 -3.143156 11.939861 -5.147710 -23.312334 -3.157329 -7.297723 -9.147071 -4.598930 -12.751619 -0.485419 3.112678 4.612073 0.000000 0.000000 0.000000 13.083019 -5.577829 0.930102 2.024678 0.867827 -8.433142 -14.473621 -23.827731 46.604127 11.637507 -44.373370 33.390250 0.000000 0.000000 0.000000 -7.634001 -2.707585 12.793955 0.578984 -0.805239 -3.109135 3.762760 -3.992768 1.378302 0.490525 -1.542493 -6.725466 3.280033 -0.388017 5.789958 0.000000 0.000000 0.000000 23.913652 1.722833 -0.500026 -56.177908 -16.893302 -19.963701 59.764106 -72.004073 -2.021627 11.371794 -2.188298 -1.031498 11.509940 -2.081652 0.000000 0.000000 0.000000 0.000000 0.000000 0.000000 0.000000 -21.706417 -0.297991 3.886523 83.961645 20.402171 9.277293 164.493195 73.651986 -179.729800 -7.916671 14.007343 0.122676 -8.024791 13.952025 0.000000 0.000000 0.000000 0.000000 0.000000 0.000000 0.000000 
-1.887972 17.482860 24.941384 3.387062 -0.642902 10.721241 -3.173627 12.317047 -5.321360 -23.753517 -3.325791 -7.550502 -8.787490 -3.799490 -10.644035 -0.480917 2.081714 2.393451 0.000000 0.000000 0.000000 13.259891 -5.878412 1.639250 1.269295 0.761976 -8.741825 -14.170443 -23.715292 45.750175 11.012978 -44.455502 34.646018 0.000000 0.000000 0.000000 -7.679903 -2.562816 12.337614 0.492057 -0.839217 -3.039507 4.101132 -3.843896 1.304472 0.473391 -1.495016 -6.713167 3.067281 -0.370614 5.608353 0.000000 0.000000 0.000000 23.248152 1.831874 -0.098102 -57.405486 -16.929006 -20.852263 58.584951 -74.334686 -2.075484 11.992750 -2.671810 -1.059972 12.141570 -2.558793 0.000000 0.000000 0.000000 0.000000 0.000000 0.000000 0.000000 -20.641407 -0.560774 3.959792 82.744169 18.826555 10.541424 166.139365 74.874715 -179.697168 -7.641308 14.384468 0.138943 -7.750369 14.331496 0.000000 0.000000 0.000000 0.000000 0.000000 0.000000 0.000000 
